# xmcd
#
# Track frame offsets:
#	150
#	13652
#	30297
#	44282
#	69132
#
# Disc length: 1200 seconds
#
# Revision: 2
# Processed by: cddbd v1.5.2PL0 Copyright (c) Steve Scherf et al.
# Submitted via: audiograbber 1.83.01
#
DISCID=2e04ae05
DTITLE=Dirk Schiefen - Kelrischer Traum
DYEAR=2000
DGENRE=Volksmusik
TTITLE0=Kelrischer Traum (Radio Version)
TTITLE1=Kelrischer Traum (long Version)
TTITLE2=Der Mond ist aufgegangen
TTITLE3=Kelrischer Traum (karaoke)
TTITLE4=Daten-CD
EXTD=<http://www.hit-radio24.de>
EXTT0=
EXTT1=
EXTT2=
EXTT3=
EXTT4=
PLAYORDER=
